<svg width="549" height="860" viewBox="0 0 549 860" fill="none" xmlns="http://www.w3.org/2000/svg">
<g id="VisnuTilak">
<path id="Vector 2" d="M464 667C479.2 641 547.5 153.5 547.5 153.5H352.5C352.5 153.5 355 557 352.5 569.5C350 582 311.5 627 270.5 621.5C229.5 616 199.5 581 196 569.5C192.5 558 196 153.5 196 153.5H1.5C1.5 153.5 79 639.5 86 667C93 694.5 119 636.5 148.5 667C178 697.5 185.5 711 211 729.5C236.5 748 304.5 753.5 338 729.5C371.5 705.5 400 665 420 658C440 651 448.8 693 464 667Z" fill="white" stroke="black"/>
<path id="Vector 2_2" d="M211 540.5C211 529 270.5 17.5 271.5 8.99991C272.5 0.499833 274 -2.50009 277.5 8.99991C281 20.4999 338 526.5 338 540.5C338 554.5 318.5 593 270.5 590.5C222.5 588 211 552 211 540.5Z" fill="#FF0000" stroke="black"/>
<path id="Ellipse 1" d="M275 765.5C301.238 765.5 322.5 786.548 322.5 812.5C322.5 838.452 301.238 859.5 275 859.5C248.762 859.5 227.5 838.452 227.5 812.5C227.5 786.548 248.762 765.5 275 765.5Z" fill="white" stroke="black"/>
</g>
</svg>
